<?xml version="1.0" encoding="UTF-8"?>
<svg id="Layer_1" data-name="Layer 1" xmlns="http://www.w3.org/2000/svg" viewBox="0 0 1080 525.91">
  <defs>
    <style>
      .cls-1 {
        fill: #febe04;
      }

      .cls-2 {
        fill: #f3fbff;
      }

      .cls-3 {
        fill: #024c7b;
      }

      .cls-4 {
        fill: #051628;
      }

      .cls-5 {
        fill: #00b94e;
      }

      .cls-6 {
        fill: #08b0ef;
      }

      .cls-7 {
        fill: #fd5904;
      }
    </style>
  </defs>
  <rect class="cls-4" width="1080" height="525.91"/>
  <g>
    <g>
      <path class="cls-2" d="M389.43,374.77c0,3,.54,3.82,4.37,4.64l4.89.55v3.28h-34.92v-3.28l4.89-.55c3.83-.82,4.37-1.64,4.37-4.64v-168.95c0-3-.54-3.82-4.37-4.64l-4.89-.55v-3.28h34.92v3.28l-4.89.55c-3.83.82-4.37,1.64-4.37,4.64v168.95Z"/>
      <path class="cls-2" d="M411.36,379.95l2.73-.82c3.55-1.09,6.49-2.46,6.49-7.38v-165.92c0-3.01-.38-3.32-4.21-4.14l-5.02-1.06v-3.28h27.27c1.37,0,1.91.27,2.19,1.64l24.05,132.58h.27l24.05-132.58c.27-1.37.82-1.64,2.19-1.64h27.34v3.01l-4.92.82c-3.83.82-4.37,1.64-4.37,4.65v168.93c0,3.01.55,3.83,4.37,4.65l4.88.55v3.28h-34.88v-3.28l4.85-.55c3.83-.82,4.37-1.64,4.37-4.65v-162.64h-.55l-30.89,171.11h-4.1l-30.89-171.11h-.55v159.63c0,4.92,2.94,6.29,6.5,7.38l2.73.82v3.28h-23.92v-3.28Z"/>
      <path class="cls-2" d="M531.3,380.16l4.92-.76c3.83-.82,4.37-1.64,4.37-4.65v-168.93c0-3.01-.68-4.31-4.37-4.65l-4.92-.55v-3.28h40.45c23.51,0,34.44,12.57,34.44,39.09v13.39c0,26.79-10.93,39.09-34.99,39.09-4.92,0-9.57-.55-14.21-2.19v87.2c0,3.28,1,4.15,5.56,5.19l3.7.82v3.28h-34.95v-3.07ZM589.79,260.77v-35.26c0-16.95-5.47-22.96-20.77-22.96h-12.03v79c3.83,1.64,7.65,2.19,12.3,2.19,15.03,0,20.5-6.01,20.5-22.96Z"/>
      <path class="cls-2" d="M618.77,380.12l4.92-.72c3.83-.82,4.37-1.64,4.37-4.65v-168.93c0-3.01-.65-4.27-4.37-4.65l-4.92-.55v-3.28h68.61c1.37,0,2.19.82,2.19,2.19v39.23h-3.55l-3.28-17.9c-2.73-14.21-6.29-18.31-19.68-18.31h-18.59v74.08h11.75c9.84,0,12.85-1.91,14.49-10.11l1.91-10.25h3.55v45.92h-3.55l-1.91-10.25c-1.64-8.2-4.65-10.11-14.49-10.11h-11.75v92.12c0,3.28,1.37,4.1,5.19,4.1h13.12c15.04,0,19.68-4.65,22.69-21.05l3.28-17.9h3.55v41.96c0,1.37-.82,2.19-2.19,2.19h-71.34v-3.11Z"/>
      <path class="cls-2" d="M726.49,379.95l3.69-.82c4.7-1.04,5.58-1.91,5.58-5.19v-171.39h-5.74c-12.57,0-13.94,4.65-17.49,23.78l-3.28,17.9h-3.55v-44.69c0-1.37.82-2.19,2.19-2.19h72.16c1.37,0,2.19.82,2.19,2.19v44.69h-3.55s-2.46-13.46-3.28-17.9c-3.54-19.14-4.92-23.78-17.49-23.78h-5.74v171.39c0,3.28.61,4.21,6.2,5.43l3.03.59v3.28h-34.89v-3.28Z"/>
      <path class="cls-2" d="M802.45,350.15v-144.33c0-3.01-.59-4.25-4.37-4.65l-4.88-.55v-3.28h34.9v3.28l-4.87.55c-3.87.44-4.37,1.64-4.37,4.65v152.8c0,15.03,5.47,21.59,16.95,21.59,13.94,0,22.96-11.75,22.96-31.71v-139.68c0-4.92-.82-6.86-4.37-7.38l-4.86-.82v-3.28h23.94v3.28l-4.87.82c-3.65.62-4.37,2.46-4.37,7.38v141.32c0,22.14-11.75,35.81-30.89,35.81s-30.89-13.67-30.89-35.81Z"/>
      <path class="cls-2" d="M900.59,377.21c-1.91-1.91-2.73-2.46-4.1-2.46-1.64,0-2.56,1.09-3.01,4.65l-.82,5.26h-3.55v-62.25h3.55l2.73,20.09c3.83,28.15,13.12,37.99,27.61,37.99s20.5-9.29,20.5-28.98c0-9.57-2.46-19.68-10.39-31.71l-29.25-43.74c-10.93-16.4-14.76-30.07-14.76-44.28,0-24.05,11.75-37.17,28.97-37.17,8.2,0,14.21,2.73,18.59,7.11,2.73,2.73,3.55,3.28,4.92,3.28,1.64,0,2.43-1.09,2.73-3.83l.82-5.43h3.55v54.36c0,.82-.55,1.09-1.09,1.09h-.82c-.82,0-1.37-.27-1.64-1.37l-2.46-15.03c-4.37-26.24-11.48-34.71-24.87-34.71-10.66,0-17.22,7.38-17.22,23.78,0,9.84,2.46,19.95,10.39,31.98l29.25,43.74c10.93,16.4,14.76,30.07,14.76,44.56,0,27.61-11.48,41.82-31.71,41.82-9.84,0-16.67-2.73-22.69-8.75Z"/>
    </g>
    <g>
      <path class="cls-2" d="M363.77,140.39h3.46v22.04h-3.46v-22.04Z"/>
      <path class="cls-2" d="M378.82,140.39h3.28l12.38,16.82v-16.82h3.27v22.04h-3.27l-12.34-16.82v16.82h-3.31v-22.04Z"/>
      <path class="cls-2" d="M412.75,162.01c-1.27-.58-2.3-1.4-3.09-2.47-.79-1.07-1.3-2.32-1.53-3.75h3.37c.31,1.32.95,2.37,1.92,3.15.97.78,2.23,1.17,3.78,1.17,1.05,0,1.95-.17,2.69-.5s1.31-.8,1.7-1.4c.39-.6.58-1.29.58-2.06,0-.88-.29-1.61-.87-2.17-.58-.57-1.44-.97-2.6-1.2l-4.76-.98c-1.74-.38-3.04-1.02-3.9-1.92s-1.29-2.13-1.29-3.69c0-1.2.34-2.27,1.02-3.21.68-.94,1.63-1.68,2.85-2.22,1.22-.54,2.62-.8,4.22-.8,2.35,0,4.24.58,5.65,1.75,1.42,1.17,2.24,2.78,2.47,4.83h-3.34c-.23-1.15-.76-2.08-1.59-2.77s-1.92-1.04-3.26-1.04c-.92,0-1.74.13-2.44.39-.7.26-1.25.64-1.64,1.13s-.58,1.08-.58,1.75c0,.8.21,1.41.64,1.84.43.43,1.16.75,2.19.96l4.91.98c1.85.36,3.25,1.05,4.22,2.08.96,1.03,1.45,2.36,1.45,4,0,1.36-.36,2.58-1.09,3.64-.72,1.06-1.72,1.89-2.99,2.49-1.27.6-2.7.9-4.3.9-1.68,0-3.16-.29-4.42-.87Z"/>
      <path class="cls-2" d="M441.17,143.45h-7.21v-3.05h17.92v3.05h-7.24v18.99h-3.46v-18.99Z"/>
      <path class="cls-2" d="M461.93,140.39h3.46v22.04h-3.46v-22.04Z"/>
      <path class="cls-2" d="M482.68,143.45h-7.21v-3.05h17.92v3.05h-7.24v18.99h-3.46v-18.99Z"/>
      <path class="cls-2" d="M507.54,161.74c-1.38-.76-2.44-1.84-3.2-3.24-.76-1.41-1.13-3.04-1.13-4.91v-13.19h3.46v13.16c0,1.34.23,2.48.69,3.42.46.93,1.12,1.64,1.97,2.13.85.48,1.85.72,3.01.72s2.15-.24,2.99-.72c.84-.48,1.49-1.19,1.95-2.13.46-.93.69-2.07.69-3.42v-13.16h3.46v13.19c0,1.87-.38,3.51-1.13,4.91-.76,1.41-1.82,2.49-3.18,3.24-1.37.76-2.96,1.13-4.79,1.13s-3.43-.38-4.8-1.13Z"/>
      <path class="cls-2" d="M538.48,143.45h-7.21v-3.05h17.92v3.05h-7.24v18.99h-3.46v-18.99Z"/>
      <path class="cls-2" d="M562.42,161.27c-1.64-1.07-2.91-2.48-3.83-4.24-.91-1.75-1.37-3.63-1.37-5.62s.46-3.87,1.37-5.62c.91-1.75,2.19-3.16,3.83-4.24,1.64-1.07,3.51-1.61,5.61-1.61s3.97.54,5.61,1.61c1.64,1.07,2.91,2.48,3.83,4.24.91,1.75,1.37,3.63,1.37,5.62s-.46,3.87-1.37,5.62-2.19,3.16-3.83,4.24c-1.64,1.07-3.51,1.61-5.61,1.61s-3.97-.54-5.61-1.61ZM571.93,158.61c1.11-.81,1.96-1.86,2.55-3.15.59-1.29.88-2.64.88-4.05s-.3-2.76-.88-4.05c-.59-1.29-1.44-2.34-2.55-3.15-1.11-.81-2.4-1.21-3.87-1.21s-2.77.4-3.89,1.21c-1.12.81-1.98,1.86-2.58,3.15-.6,1.29-.9,2.64-.9,4.05s.3,2.76.9,4.05c.6,1.29,1.46,2.34,2.58,3.15s2.42,1.21,3.89,1.21,2.76-.4,3.87-1.21Z"/>
    </g>
    <g>
      <path class="cls-7" d="M305.42,313.44c-.74,15.44-6.81,29.99-17.39,41.49-10.61,11.52-24.64,18.79-40,20.78-1.95.26-3.94.44-5.92.53-2.08.08-4.14.08-6.21-.04-14.87-.76-28.97-6.43-40.25-16.42-.36-.3-.72-.62-1.08-.95-1.61-1.48-3.12-3.01-4.54-4.62-7.63-8.48-12.83-18.68-15.25-29.71-.57-2.54-.98-5.11-1.23-7.72-.13-1.29-.23-2.57-.28-3.88-.21-5,.13-9.93,1.02-14.74,1.49,5.01,3.58,9.93,6.24,14.68,2.67,4.73,5.79,9.06,9.31,12.92,2.84,3.16,5.94,6.04,9.25,8.57,7.02,5.45,14.93,9.48,23.29,12,2.61.79,5.24,1.42,7.93,1.91,4.24.78,8.57,1.17,12.92,1.17,5.96,0,11.96-.74,17.86-2.27,1.89-.49,3.78-1.06,5.66-1.74,2.55-.87,5.07-1.91,7.55-3.1,1.36-.66,2.71-1.36,4.05-2.12,11.45-6.45,20.7-15.67,27.06-26.75Z"/>
      <path class="cls-1" d="M308.16,289.43c-.72,4.01-1.82,7.95-3.27,11.73-5.13,13.55-14.72,25.49-28.08,33.38-.4.25-.81.49-1.23.72-1.89,1.06-3.84,2.02-5.79,2.89-10.61,4.69-21.95,6.36-32.92,5.28-2.63-.25-5.22-.64-7.78-1.23-6.07-1.31-11.96-3.46-17.45-6.43.55.04,1.12.04,1.67.04,4.69,0,9.44-.47,14.21-1.42,5.32-1.08,10.37-2.71,15.12-4.82,3.9-1.74,7.61-3.82,11.09-6.21,7.34-5,13.64-11.31,18.62-18.52,1.55-2.21,2.97-4.54,4.24-6.93,5.52-10.24,8.57-21.83,8.57-33.89,0-.53,0-1.04-.02-1.57-.06-2.71-.26-5.43-.64-8.16-.21-1.49-.45-3.01-.76-4.5-2.65-13.17-8.76-24.77-17.22-34.04,14.53,5.45,26.53,15.72,34.23,29.4,7.87,13.98,10.1,29.61,7.42,44.28Z"/>
      <path class="cls-5" d="M274.01,290.2c-1.02,2.4-2.21,4.75-3.54,7-3.12,5.41-7.02,10.35-11.56,14.68,1.76-4.92,2.97-10.12,3.6-15.53.62-5.41.62-10.77.06-15.99-.45-4.26-1.29-8.4-2.48-12.43-2.5-8.5-6.53-16.39-11.83-23.33-1.63-2.16-3.39-4.22-5.24-6.17-8.38-8.78-19.02-15.48-31.11-19.13-2.59-.78-5.24-1.42-7.97-1.89-1.49-.28-2.99-.51-4.52-.68-13.02-1.49-25.9.51-37.56,5.75,9.35-11.64,22.67-20.19,38.41-23.35,4.39-.89,8.76-1.32,13.07-1.32,11.14,0,21.89,2.84,31.35,7.97,3.58,1.93,6.96,4.18,10.12,6.74,11.28,9.06,19.66,21.85,23.03,36.99.13.45.23.93.32,1.4.44,2.14.76,4.28.96,6.41,1.17,11.52-.72,22.78-5.13,32.89Z"/>
      <path class="cls-6" d="M250.78,259.51c-4.18-3.2-8.74-5.94-13.62-8.17-4.92-2.25-10.01-3.94-15.19-5.01-4.12-.89-8.31-1.38-12.49-1.51-8.68-.28-17.43,1.06-25.87,4.01-.47.15-.93.32-1.4.49-2.08.78-4.12,1.65-6.11,2.59-6.57,3.14-12.54,7.21-17.77,12.07-3.77,3.5-7.15,7.42-10.09,11.69-1.55,2.21-2.97,4.54-4.24,6.94-.74,1.34-1.42,2.71-2.06,4.11-5.56,12.17-7.44,25.09-6.09,37.52-8.21-12.51-12.24-27.81-10.39-43.78,1.8-15.57,8.89-29.69,20.15-40.34,1.42-1.36,2.91-2.65,4.47-3.88,1.65-1.31,3.33-2.52,5.07-3.63,10.73-7,23.1-10.67,35.87-10.67,2.12,0,4.24.09,6.36.3.45.04.93.08,1.38.13,2.18.25,4.31.61,6.41,1.08,11.31,2.42,21.42,7.72,29.67,15.02,1.99,1.72,3.86,3.59,5.6,5.56,4.14,4.64,7.63,9.84,10.33,15.48Z"/>
      <path class="cls-3" d="M224.44,380.46c-14.38,3.9-30.16,2.99-44.75-3.69-14.64-6.7-25.68-18.13-32.09-31.64-1.76-3.65-3.16-7.45-4.22-11.35-1.51-5.6-2.29-11.39-2.29-17.26,0-8.76,1.74-17.63,5.45-26.15.17-.44.38-.85.57-1.29.91-1.99,1.89-3.9,2.99-5.75,5.7-9.86,13.77-17.98,23.52-23.67,2.25-1.32,4.58-2.52,7-3.58,1.17-.53,2.37-1,3.58-1.46,4.69-1.76,9.5-2.95,14.34-3.6-4.35,3.03-8.38,6.53-12.03,10.5-3.63,3.95-6.79,8.25-9.4,12.79-2.12,3.65-3.9,7.45-5.32,11.41-2.97,8.21-4.43,16.97-4.2,25.94-.02.49,0,.98.02,1.48.09,2.21.28,4.43.59,6.6.95,7.21,2.97,14.15,5.98,20.64,2.16,4.65,4.82,9.06,7.97,13.19,1.65,2.16,3.44,4.24,5.34,6.23,1.06,1.1,2.16,2.16,3.27,3.2,9.63,8.86,21.21,14.82,33.7,17.45Z"/>
    </g>
  </g>
</svg>