<?xml version="1.0" encoding="UTF-8"?>
<svg id="Layer_1" data-name="Layer 1" xmlns="http://www.w3.org/2000/svg" viewBox="0 0 1080 854.61">
  <defs>
    <style>
      .cls-1 {
        fill: #febe04;
      }

      .cls-2 {
        fill: #024c7b;
      }

      .cls-3 {
        fill: #051628;
      }

      .cls-4 {
        fill: #00b94e;
      }

      .cls-5 {
        fill: #08b0ef;
      }

      .cls-6 {
        fill: #fd5904;
      }
    </style>
  </defs>
  <g>
    <path class="cls-6" d="M608.52,279.78c-.57,11.98-5.29,23.28-13.5,32.21-8.24,8.94-19.12,14.58-31.05,16.12-1.51.21-3.05.34-4.6.41-1.62.06-3.22.06-4.82-.03-11.54-.59-22.48-4.99-31.24-12.75-.28-.24-.56-.48-.84-.73-1.25-1.15-2.42-2.34-3.52-3.58-5.92-6.58-9.96-14.49-11.84-23.06-.44-1.97-.76-3.97-.95-5.99-.1-1-.18-2-.22-3.01-.16-3.88.1-7.71.79-11.44,1.16,3.89,2.78,7.71,4.85,11.4,2.07,3.67,4.49,7.03,7.23,10.03,2.2,2.45,4.61,4.68,7.18,6.65,5.45,4.23,11.59,7.36,18.08,9.31,2.03.62,4.07,1.1,6.15,1.48,3.29.6,6.65.91,10.03.91,4.63,0,9.28-.57,13.86-1.76,1.47-.38,2.94-.82,4.39-1.35,1.98-.68,3.94-1.48,5.86-2.41,1.06-.51,2.1-1.06,3.14-1.64,8.88-5.01,16.07-12.16,21-20.77Z"/>
    <path class="cls-1" d="M610.65,261.14c-.56,3.11-1.41,6.17-2.54,9.11-3.98,10.51-11.43,19.78-21.79,25.91-.31.19-.63.38-.95.56-1.47.82-2.98,1.57-4.49,2.25-8.24,3.64-17.04,4.93-25.55,4.1-2.04-.19-4.05-.5-6.04-.95-4.71-1.01-9.28-2.69-13.54-4.99.43.03.87.03,1.29.03,3.64,0,7.33-.37,11.03-1.1,4.13-.84,8.05-2.1,11.73-3.74,3.03-1.35,5.9-2.97,8.61-4.82,5.7-3.88,10.59-8.78,14.45-14.38,1.2-1.72,2.31-3.52,3.29-5.37,4.29-7.94,6.65-16.95,6.65-26.3,0-.41,0-.81-.01-1.22-.04-2.1-.21-4.21-.5-6.33-.16-1.16-.35-2.34-.59-3.5-2.06-10.22-6.8-19.22-13.36-26.42,11.28,4.23,20.59,12.2,26.57,22.82,6.11,10.85,7.84,22.98,5.76,34.36Z"/>
    <path class="cls-4" d="M584.15,261.74c-.79,1.87-1.72,3.69-2.75,5.43-2.42,4.2-5.45,8.03-8.97,11.4,1.37-3.82,2.31-7.86,2.79-12.06.48-4.2.48-8.36.04-12.41-.35-3.3-1-6.52-1.92-9.65-1.94-6.59-5.07-12.72-9.18-18.11-1.26-1.67-2.63-3.27-4.07-4.79-6.51-6.81-14.76-12.01-24.14-14.85-2.01-.6-4.07-1.1-6.18-1.47-1.16-.22-2.32-.4-3.51-.53-10.1-1.16-20.1.4-29.15,4.46,7.25-9.03,17.59-15.67,29.81-18.12,3.41-.69,6.8-1.03,10.15-1.03,8.65,0,16.99,2.2,24.33,6.18,2.78,1.5,5.4,3.25,7.86,5.23,8.75,7.03,15.26,16.96,17.87,28.71.1.35.18.72.25,1.09.34,1.66.59,3.32.75,4.98.91,8.94-.56,17.68-3.98,25.52Z"/>
    <path class="cls-5" d="M566.11,237.92c-3.25-2.48-6.78-4.61-10.57-6.34-3.82-1.75-7.77-3.05-11.79-3.89-3.2-.69-6.45-1.07-9.69-1.17-6.74-.22-13.53.82-20.08,3.11-.37.12-.72.25-1.09.38-1.62.6-3.2,1.28-4.74,2.01-5.1,2.44-9.74,5.6-13.79,9.37-2.92,2.72-5.55,5.76-7.83,9.08-1.2,1.72-2.31,3.52-3.29,5.39-.57,1.04-1.1,2.1-1.6,3.19-4.32,9.44-5.77,19.47-4.73,29.12-6.37-9.71-9.5-21.59-8.06-33.98,1.4-12.09,6.9-23.04,15.64-31.31,1.1-1.06,2.26-2.06,3.47-3.01,1.28-1.01,2.58-1.95,3.94-2.82,8.33-5.43,17.93-8.28,27.84-8.28,1.64,0,3.29.07,4.93.24.35.03.72.06,1.07.1,1.69.19,3.35.47,4.98.84,8.78,1.88,16.62,5.99,23.03,11.66,1.54,1.34,3,2.79,4.35,4.32,3.22,3.6,5.92,7.64,8.02,12.01Z"/>
    <path class="cls-2" d="M545.67,331.79c-11.16,3.03-23.41,2.32-34.73-2.86-11.37-5.2-19.93-14.07-24.91-24.55-1.37-2.83-2.45-5.79-3.27-8.81-1.17-4.35-1.78-8.84-1.78-13.39,0-6.8,1.35-13.69,4.23-20.3.13-.34.29-.66.44-1,.7-1.54,1.47-3.03,2.32-4.46,4.42-7.65,10.69-13.95,18.25-18.37,1.75-1.03,3.55-1.95,5.43-2.78.91-.41,1.84-.78,2.78-1.13,3.64-1.37,7.37-2.29,11.13-2.79-3.38,2.35-6.51,5.07-9.34,8.15-2.82,3.07-5.27,6.4-7.3,9.93-1.64,2.83-3.03,5.79-4.13,8.86-2.31,6.37-3.44,13.17-3.26,20.13-.01.38,0,.76.01,1.15.07,1.72.22,3.44.46,5.13.73,5.6,2.31,10.98,4.64,16.02,1.67,3.61,3.74,7.03,6.18,10.24,1.28,1.67,2.67,3.29,4.14,4.83.82.85,1.67,1.67,2.54,2.48,7.48,6.87,16.46,11.5,26.16,13.54Z"/>
  </g>
  <g>
    <g>
      <path class="cls-3" d="M216.34,651.16c0,3.59.65,4.58,5.24,5.56l5.86.66v3.93h-41.87v-3.93l5.86-.66c4.59-.98,5.24-1.96,5.24-5.56v-202.56c0-3.59-.65-4.58-5.24-5.56l-5.86-.66v-3.93h41.87v3.93l-5.86.66c-4.59.98-5.24,1.96-5.24,5.56v202.56Z"/>
      <path class="cls-3" d="M242.64,657.37l3.28-.98c4.26-1.31,7.79-2.95,7.79-8.85v-198.93c0-3.6-.46-3.98-5.04-4.96l-6.02-1.27v-3.93h32.69c1.64,0,2.29.33,2.62,1.97l28.84,158.95h.33l28.84-158.95c.33-1.64.98-1.97,2.62-1.97h32.77v3.6l-5.9.98c-4.59.98-5.24,1.97-5.24,5.57v202.54c0,3.6.66,4.59,5.24,5.57l5.84.66v3.93h-41.81v-3.93l5.82-.66c4.59-.98,5.24-1.97,5.24-5.57v-195h-.66l-37.03,205.16h-4.92l-37.03-205.16h-.66v191.39c0,5.9,3.53,7.54,7.79,8.85l3.28.98v3.93h-28.68v-3.93Z"/>
      <path class="cls-3" d="M386.44,657.62l5.9-.91c4.59-.98,5.24-1.97,5.24-5.57v-202.54c0-3.6-.81-5.16-5.24-5.57l-5.9-.65v-3.93h48.5c28.18,0,41.29,15.08,41.29,46.87v16.06c0,32.12-13.11,46.87-41.95,46.87-5.9,0-11.47-.66-17.04-2.62v104.55c0,3.93,1.2,4.98,6.67,6.23l4.43.98v3.93h-41.91v-3.68ZM456.57,514.47v-42.28c0-20.32-6.55-27.53-24.91-27.53h-14.42v94.71c4.59,1.97,9.18,2.62,14.75,2.62,18.02,0,24.58-7.21,24.58-27.53Z"/>
      <path class="cls-3" d="M491.31,657.57l5.9-.86c4.59-.98,5.24-1.97,5.24-5.57v-202.54c0-3.6-.78-5.12-5.24-5.57l-5.9-.65v-3.93h82.26c1.64,0,2.62.98,2.62,2.62v47.03h-4.26l-3.93-21.47c-3.28-17.04-7.54-21.96-23.6-21.96h-22.29v88.82h14.09c11.8,0,15.4-2.29,17.37-12.13l2.29-12.29h4.26v55.06h-4.26l-2.29-12.29c-1.97-9.83-5.57-12.13-17.37-12.13h-14.09v110.44c0,3.93,1.64,4.92,6.23,4.92h15.73c18.03,0,23.6-5.57,27.2-25.24l3.93-21.47h4.26v50.31c0,1.64-.98,2.62-2.62,2.62h-85.53v-3.73Z"/>
      <path class="cls-3" d="M620.47,657.37l4.42-.98c5.63-1.25,6.68-2.29,6.68-6.23v-205.49h-6.88c-15.08,0-16.71,5.57-20.97,28.51l-3.93,21.47h-4.26v-53.58c0-1.64.98-2.62,2.62-2.62h86.52c1.64,0,2.62.98,2.62,2.62v53.58h-4.26s-2.95-16.14-3.93-21.47c-4.25-22.94-5.9-28.51-20.97-28.51h-6.88v205.49c0,3.93.73,5.05,7.43,6.51l3.63.7v3.93h-41.83v-3.93Z"/>
      <path class="cls-3" d="M711.55,621.64v-173.04c0-3.6-.71-5.1-5.24-5.57l-5.85-.65v-3.93h41.85v3.93l-5.84.65c-4.65.53-5.24,1.97-5.24,5.57v183.2c0,18.02,6.55,25.89,20.32,25.89,16.71,0,27.53-14.09,27.53-38.02v-167.47c0-5.9-.98-8.23-5.24-8.85l-5.83-.98v-3.93h28.71v3.93l-5.84.98c-4.38.74-5.24,2.95-5.24,8.85v169.43c0,26.55-14.09,42.93-37.03,42.93s-37.03-16.39-37.03-42.93Z"/>
      <path class="cls-3" d="M829.2,654.09c-2.29-2.29-3.28-2.95-4.92-2.95-1.97,0-3.07,1.31-3.6,5.57l-.98,6.3h-4.26v-74.64h4.26l3.28,24.09c4.59,33.76,15.73,45.55,33.1,45.55s24.58-11.14,24.58-34.74c0-11.47-2.95-23.6-12.45-38.02l-35.07-52.44c-13.11-19.66-17.7-36.05-17.7-53.09,0-28.84,14.09-44.57,34.74-44.57,9.83,0,17.04,3.28,22.29,8.52,3.28,3.28,4.26,3.93,5.9,3.93,1.97,0,2.91-1.31,3.28-4.59l.98-6.51h4.26v65.18c0,.98-.66,1.31-1.31,1.31h-.98c-.98,0-1.64-.33-1.97-1.64l-2.95-18.03c-5.24-31.46-13.76-41.62-29.82-41.62-12.78,0-20.65,8.85-20.65,28.51,0,11.8,2.95,23.92,12.45,38.34l35.07,52.44c13.11,19.66,17.7,36.05,17.7,53.42,0,33.1-13.76,50.14-38.02,50.14-11.8,0-19.99-3.28-27.2-10.49Z"/>
    </g>
    <g>
      <path class="cls-3" d="M411.76,370.15h4.15v26.43h-4.15v-26.43Z"/>
      <path class="cls-3" d="M429.8,370.15h3.93l14.84,20.16v-20.16h3.93v26.43h-3.93l-14.8-20.16v20.16h-3.96v-26.43Z"/>
      <path class="cls-3" d="M470.49,396.07c-1.52-.69-2.76-1.68-3.7-2.96-.94-1.28-1.55-2.78-1.83-4.49h4.04c.38,1.59,1.14,2.85,2.3,3.78,1.16.93,2.67,1.4,4.53,1.4,1.26,0,2.33-.2,3.23-.6s1.57-.96,2.04-1.68c.47-.72.7-1.54.7-2.47,0-1.06-.35-1.93-1.04-2.6-.69-.68-1.73-1.16-3.12-1.44l-5.7-1.17c-2.09-.45-3.65-1.22-4.68-2.3s-1.55-2.55-1.55-4.42c0-1.43.41-2.72,1.23-3.85.82-1.13,1.96-2.02,3.42-2.66,1.46-.64,3.15-.96,5.06-.96,2.82,0,5.08.7,6.78,2.09,1.7,1.4,2.69,3.33,2.96,5.8h-4c-.28-1.38-.91-2.49-1.91-3.32s-2.3-1.25-3.91-1.25c-1.11,0-2.08.16-2.93.47-.84.32-1.5.77-1.96,1.36s-.7,1.29-.7,2.1c0,.96.26,1.69.77,2.21.52.52,1.39.9,2.63,1.15l5.89,1.17c2.22.43,3.9,1.26,5.06,2.49,1.16,1.23,1.74,2.83,1.74,4.8,0,1.64-.43,3.09-1.3,4.36-.87,1.27-2.06,2.27-3.59,2.98-1.52.72-3.24,1.08-5.15,1.08-2.01,0-3.78-.35-5.31-1.04Z"/>
      <path class="cls-3" d="M504.56,373.81h-8.65v-3.66h21.48v3.66h-8.68v22.77h-4.15v-22.77Z"/>
      <path class="cls-3" d="M529.45,370.15h4.15v26.43h-4.15v-26.43Z"/>
      <path class="cls-3" d="M554.33,373.81h-8.65v-3.66h21.48v3.66h-8.68v22.77h-4.15v-22.77Z"/>
      <path class="cls-3" d="M584.14,395.75c-1.65-.91-2.93-2.2-3.83-3.89-.91-1.69-1.36-3.65-1.36-5.89v-15.82h4.15v15.78c0,1.61.28,2.98.83,4.1.55,1.12,1.34,1.97,2.36,2.55,1.02.58,2.22.87,3.6.87s2.58-.29,3.59-.87c1.01-.58,1.79-1.43,2.34-2.55.55-1.12.83-2.49.83-4.1v-15.78h4.15v15.82c0,2.24-.45,4.2-1.36,5.89-.91,1.69-2.18,2.98-3.81,3.89-1.64.91-3.55,1.36-5.74,1.36s-4.11-.45-5.76-1.36Z"/>
      <path class="cls-3" d="M621.23,373.81h-8.65v-3.66h21.48v3.66h-8.68v22.77h-4.15v-22.77Z"/>
      <path class="cls-3" d="M649.93,395.18c-1.96-1.28-3.49-2.98-4.59-5.08-1.1-2.1-1.64-4.35-1.64-6.74s.55-4.64,1.64-6.74c1.09-2.1,2.62-3.79,4.59-5.08,1.96-1.28,4.2-1.92,6.72-1.92s4.76.64,6.72,1.92c1.96,1.28,3.49,2.98,4.59,5.08,1.09,2.1,1.64,4.35,1.64,6.74s-.55,4.64-1.64,6.74c-1.09,2.1-2.62,3.79-4.59,5.08-1.96,1.28-4.2,1.92-6.72,1.92s-4.76-.64-6.72-1.92ZM661.33,391.99c1.33-.97,2.35-2.23,3.06-3.78.7-1.55,1.06-3.17,1.06-4.85s-.35-3.3-1.06-4.85c-.71-1.55-1.72-2.81-3.06-3.78-1.33-.97-2.88-1.45-4.64-1.45s-3.32.49-4.66,1.45c-1.35.97-2.38,2.23-3.1,3.78-.72,1.55-1.08,3.17-1.08,4.85s.36,3.3,1.08,4.85c.72,1.55,1.75,2.81,3.1,3.78s2.9,1.45,4.66,1.45,3.31-.48,4.64-1.45Z"/>
    </g>
  </g>
</svg>