<?xml version="1.0" encoding="UTF-8"?>
<svg id="Layer_1" data-name="Layer 1" xmlns="http://www.w3.org/2000/svg" viewBox="0 0 1080 1080">
  <defs>
    <style>
      .cls-1 {
        fill: #febe04;
      }

      .cls-2 {
        fill: #024c7b;
      }

      .cls-3 {
        fill: #00b94e;
      }

      .cls-4 {
        fill: #08b0ef;
      }

      .cls-5 {
        fill: #fd5904;
      }
    </style>
  </defs>
  <path class="cls-5" d="M758.81,597.37c-1.83,38.27-16.88,74.33-43.1,102.84-26.31,28.56-61.06,46.57-99.14,51.49-4.83.66-9.75,1.08-14.68,1.31-5.16.19-10.27.19-15.38-.09-36.86-1.88-71.8-15.94-99.74-40.7-.89-.75-1.78-1.55-2.67-2.34-3.99-3.66-7.74-7.46-11.25-11.44-18.9-21.01-31.79-46.28-37.8-73.62-1.41-6.28-2.44-12.66-3.05-19.13-.33-3.19-.56-6.38-.7-9.61-.52-12.38.33-24.62,2.53-36.53,3.7,12.43,8.86,24.62,15.48,36.39,6.61,11.72,14.35,22.46,23.07,32.03,7.03,7.83,14.72,14.96,22.93,21.24,17.4,13.51,37,23.49,57.73,29.73,6.47,1.97,12.99,3.52,19.65,4.74,10.5,1.92,21.24,2.91,32.03,2.91,14.77,0,29.64-1.83,44.27-5.63,4.69-1.22,9.38-2.63,14.02-4.31,6.33-2.16,12.57-4.74,18.71-7.69,3.38-1.64,6.71-3.38,10.04-5.25,28.37-15.99,51.3-38.83,67.06-66.31Z"/>
  <path class="cls-1" d="M765.61,537.86c-1.78,9.94-4.5,19.7-8.11,29.07-12.71,33.58-36.48,63.17-69.59,82.72-.98.61-2.02,1.22-3.05,1.78-4.69,2.63-9.52,5.02-14.35,7.17-26.31,11.63-54.4,15.76-81.6,13.08-6.52-.61-12.94-1.59-19.27-3.05-15.05-3.24-29.64-8.58-43.24-15.94,1.36.09,2.77.09,4.13.09,11.63,0,23.4-1.17,35.22-3.52,13.18-2.67,25.7-6.71,37.47-11.96,9.66-4.31,18.85-9.47,27.48-15.38,18.2-12.38,33.81-28.04,46.14-45.91,3.85-5.49,7.36-11.25,10.5-17.16,13.69-25.37,21.24-54.12,21.24-83.99,0-1.31,0-2.58-.05-3.89-.14-6.71-.66-13.46-1.59-20.21-.52-3.7-1.13-7.46-1.88-11.16-6.57-32.64-21.71-61.39-42.67-84.36,36.01,13.51,65.75,38.97,84.83,72.87,19.51,34.66,25.04,73.39,18.38,109.73Z"/>
  <path class="cls-3" d="M680.97,539.79c-2.53,5.96-5.49,11.77-8.77,17.35-7.74,13.41-17.4,25.65-28.65,36.39,4.36-12.19,7.36-25.09,8.91-38.5,1.55-13.41,1.55-26.68.14-39.63-1.13-10.55-3.19-20.82-6.14-30.81-6.19-21.06-16.18-40.61-29.31-57.82-4.03-5.35-8.39-10.46-12.99-15.29-20.77-21.76-47.13-38.36-77.09-47.41-6.42-1.92-12.99-3.52-19.74-4.69-3.7-.7-7.41-1.27-11.21-1.69-32.26-3.7-64.2,1.27-93.09,14.26,23.17-28.84,56.18-50.04,95.2-57.87,10.88-2.2,21.71-3.28,32.4-3.28,27.62,0,54.26,7.03,77.7,19.74,8.86,4.78,17.26,10.36,25.09,16.69,27.95,22.46,48.72,54.16,57.07,91.68.33,1.13.56,2.3.8,3.47,1.08,5.3,1.88,10.6,2.39,15.9,2.91,28.56-1.78,56.46-12.71,81.5Z"/>
  <path class="cls-4" d="M623.38,463.72c-10.36-7.93-21.67-14.72-33.76-20.26-12.19-5.58-24.81-9.75-37.66-12.43-10.22-2.2-20.59-3.42-30.95-3.75-21.52-.7-43.19,2.63-64.1,9.94-1.17.38-2.3.8-3.47,1.22-5.16,1.92-10.22,4.08-15.15,6.42-16.27,7.78-31.09,17.87-44.03,29.92-9.33,8.68-17.73,18.38-24.99,28.98-3.85,5.49-7.36,11.25-10.5,17.21-1.83,3.33-3.52,6.71-5.11,10.18-13.79,30.15-18.43,62.18-15.1,92.99-20.35-31-30.34-68.93-25.75-108.51,4.46-38.59,22.04-73.58,49.94-99.98,3.52-3.38,7.22-6.57,11.07-9.61,4.08-3.24,8.25-6.24,12.57-9,26.59-17.35,57.26-26.45,88.91-26.45,5.25,0,10.5.23,15.76.75,1.13.09,2.3.19,3.42.33,5.39.61,10.69,1.5,15.9,2.67,28.04,6,53.08,19.13,73.53,37.23,4.92,4.27,9.57,8.91,13.88,13.79,10.27,11.49,18.9,24.39,25.6,38.36Z"/>
  <path class="cls-2" d="M558.1,763.47c-35.64,9.66-74.75,7.41-110.91-9.14-36.3-16.6-63.64-44.93-79.53-78.41-4.36-9.05-7.83-18.48-10.46-28.14-3.75-13.88-5.67-28.23-5.67-42.77,0-21.71,4.31-43.71,13.51-64.81.42-1.08.94-2.11,1.41-3.19,2.25-4.92,4.69-9.66,7.41-14.26,14.12-24.43,34.14-44.55,58.29-58.67,5.58-3.28,11.35-6.24,17.35-8.86,2.91-1.31,5.86-2.49,8.86-3.61,11.63-4.36,23.54-7.32,35.55-8.91-10.79,7.5-20.77,16.18-29.82,26.03-9,9.8-16.84,20.45-23.31,31.7-5.25,9.05-9.66,18.48-13.18,28.28-7.36,20.35-10.97,42.06-10.41,64.29-.05,1.22,0,2.44.05,3.66.23,5.49.7,10.97,1.45,16.37,2.34,17.87,7.36,35.08,14.82,51.16,5.35,11.54,11.96,22.46,19.74,32.69,4.08,5.35,8.53,10.5,13.22,15.43,2.63,2.72,5.35,5.35,8.11,7.93,23.87,21.95,52.57,36.72,83.52,43.24Z"/>
</svg>